<?xml version="1.0" standalone="no"?>
<!DOCTYPE svg PUBLIC "-//W3C//DTD SVG 20010904//EN"
 "http://www.w3.org/TR/2001/REC-SVG-20010904/DTD/svg10.dtd">
<svg version="1.0" xmlns="http://www.w3.org/2000/svg"
 width="400.000000pt" height="400.000000pt" viewBox="0 0 400.000000 400.000000"
 preserveAspectRatio="xMidYMid meet">
<metadata>
Created by potrace 1.14, written by Peter Selinger 2001-2017
</metadata>
<g transform="translate(0.000000,400.000000) scale(0.100000,-0.100000)"
fill="#000000" stroke="none">
<path d="M1836 3978 c20 -66 96 -121 165 -120 70 1 152 62 164 122 4 19 -1 20
-166 20 l-170 0 7 -22z"/>
<path d="M1032 3696 c-74 -25 -123 -102 -116 -179 14 -157 225 -212 313 -82
91 135 -44 313 -197 261z"/>
<path d="M2874 3700 c-101 -22 -161 -140 -120 -233 34 -74 88 -107 173 -103
110 5 183 114 150 223 -25 81 -117 132 -203 113z"/>
<path d="M1923 3279 c-138 -43 -214 -190 -168 -328 60 -181 291 -236 425 -102
102 102 106 258 9 360 -74 77 -165 101 -266 70z"/>
<path d="M134 3179 c-83 -19 -140 -99 -130 -182 15 -134 156 -200 279 -131 49
27 87 87 87 137 0 75 -69 158 -141 172 -12 2 -28 6 -37 8 -9 3 -35 1 -58 -4z"/>
<path d="M3782 3177 c-28 -5 -54 -20 -77 -44 -136 -140 11 -351 194 -277 75
30 118 128 91 209 -11 34 -71 105 -88 105 -4 0 -23 4 -42 8 -19 5 -54 4 -78
-1z"/>
<path d="M2853 2789 c-71 -14 -145 -81 -179 -162 -28 -65 -26 -154 4 -214 29
-55 103 -119 150 -128 20 -4 48 -9 61 -12 38 -7 121 15 167 45 28 17 56 48 78
86 32 54 36 68 36 131 0 59 -5 78 -30 122 -59 103 -173 156 -287 132z"/>
<path d="M985 2749 c-128 -52 -191 -192 -140 -313 24 -56 90 -122 143 -143
174 -66 356 55 356 237 0 180 -181 291 -359 219z"/>
<path d="M1959 2356 c-2 -2 -21 -7 -42 -10 -80 -13 -187 -99 -229 -186 -29
-58 -29 -61 -31 -151 -1 -66 3 -84 31 -142 78 -161 253 -235 437 -183 46 13
113 57 155 103 84 92 110 227 68 343 -40 107 -143 196 -256 219 -53 11 -125
15 -133 7z"/>
<path d="M102 2169 c-22 -11 -53 -39 -69 -61 -23 -35 -28 -51 -28 -104 0 -68
15 -98 69 -138 21 -16 42 -21 95 -21 59 0 72 4 105 29 41 31 75 94 76 139 0
61 -51 135 -110 159 -45 18 -97 17 -138 -3z"/>
<path d="M3753 2169 c-85 -42 -125 -147 -85 -225 50 -97 143 -130 236 -84 97
47 125 181 56 263 -49 59 -140 79 -207 46z"/>
<path d="M998 1757 c-173 -65 -223 -278 -99 -419 95 -108 275 -110 373 -5 114
124 93 317 -45 404 -34 21 -57 27 -117 30 -47 2 -89 -2 -112 -10z"/>
<path d="M2824 1759 c-46 -13 -121 -84 -145 -137 -48 -101 -21 -225 64 -298
62 -52 103 -68 183 -68 64 1 78 4 122 33 30 19 64 53 83 83 27 42 33 62 37
124 4 65 1 80 -22 129 -29 59 -85 110 -144 131 -42 15 -132 17 -178 3z"/>
<path d="M1929 1241 c-104 -37 -161 -97 -181 -193 -26 -125 40 -242 159 -280
206 -66 406 118 338 311 -23 65 -70 116 -134 145 -72 32 -125 37 -182 17z"/>
<path d="M135 1161 c-48 -15 -87 -44 -111 -83 -51 -80 -15 -196 74 -239 51
-25 122 -22 172 7 45 27 83 106 77 160 -11 102 -124 184 -212 155z"/>
<path d="M3753 1145 c-80 -36 -122 -132 -92 -208 39 -100 147 -144 242 -98 63
31 92 80 92 156 0 52 -5 68 -27 97 -53 69 -136 90 -215 53z"/>
<path d="M1050 662 c-58 -10 -115 -68 -129 -133 -17 -78 10 -141 81 -185 35
-22 49 -25 94 -21 94 9 154 67 162 156 9 113 -92 202 -208 183z"/>
<path d="M2874 661 c-116 -28 -170 -167 -103 -266 86 -126 286 -82 313 71 21
113 -97 222 -210 195z"/>
<path d="M1955 159 c-61 -15 -125 -85 -125 -139 0 -19 5 -20 170 -20 165 0
170 1 170 20 0 53 -61 120 -126 138 -23 7 -43 12 -45 11 -2 -1 -22 -5 -44 -10z"/>
</g>
</svg>
